# xmcd
#
# Track frame offsets: 
#        150
#        16722
#        40517
#        57242
#        72385
#        95032
#        112212
#        129547
#        149702
#        167567
#        187220
#        209812
#        231224
#        247779
#        265857
#        280327
#        303302
#        319307
#
# Disc length: 4441 seconds
#
# Revision: 0
# Processed by: cddbd v1.5.2PL0 Copyright (c) Steve Scherf et al.
# Submitted via: ExactAudioCopy v0.95b4
#
DISCID=15115712
DTITLE=Bonnie Raitt - Souls Alike - Streetlights to #7
DYEAR=2005
DGENRE=Rock and Roll
TTITLE0=01 I Will Not Be Broken
TTITLE1=02 God Was In The Water
TTITLE2=03 Love On One Condition
TTITLE3=04 So Close
TTITLE4=05 Trinkets
TTITLE5=06 Crooked Crown
TTITLE6=07 Unnecessarily Mercenary
TTITLE7=08 I Don't Want Anything To Change
TTITLE8=09 Deep Water
TTITLE9=10 Two Lights In The Night Time
TTITLE10=11 The Bed I Made
TTITLE11=01 That Song About The Midway
TTITLE12=02 Rainy Day Man
TTITLE13=03 Angel From Montgomery
TTITLE14=04 I Got Plenty
TTITLE15=05 Street Lights
TTITLE16=06 What Is Success
TTITLE17=07 Ain't Nobody Home
EXTD=
EXTT0=
EXTT1=
EXTT2=
EXTT3=
EXTT4=
EXTT5=
EXTT6=
EXTT7=
EXTT8=
EXTT9=
EXTT10=
EXTT11=
EXTT12=
EXTT13=
EXTT14=
EXTT15=
EXTT16=
EXTT17=
PLAYORDER=
